<?xml version="1.0" encoding="UTF-8"?>
<svg width="250px" height="56px" viewBox="0 0 250 56" version="1.1" xmlns="http://www.w3.org/2000/svg" xmlns:xlink="http://www.w3.org/1999/xlink">
    <!-- Generator: Sketch 56.2 (81672) - https://sketch.com -->
    <title>Group 2 Copy 2</title>
    <desc>Created with Sketch.</desc>
    <g id="Page-1" stroke="none" stroke-width="1" fill="none" fill-rule="evenodd">
        <g id="Artboard" transform="translate(-36.000000, -33.000000)">
            <g id="Group-2-Copy-2" transform="translate(36.000000, 33.000000)">
                <rect id="Rectangle" fill="#FFD546" x="0" y="24" width="250" height="32"></rect>
                <path d="M11.8043337,39.673 C11.8043337,39.673 18.1683337,29.854 25.7093337,25.454 C25.7883337,24.982 25.8663337,24.353 26.4163337,24.275 C26.9663337,24.197 28.3803337,22.939 28.3803337,22.939 C28.3803337,22.939 21.3103337,19.876 22.0173337,18.697 C22.7243337,17.519 23.5103337,16.262 23.5103337,16.262 L26.2603337,16.89 C26.2603337,16.89 23.9043337,12.805 23.9043337,11.313 C23.9043337,9.82 25.2393337,7.542 27.2033337,7.542 C29.1673337,7.542 30.0313337,7.228 30.2673337,7.542 C30.5023337,7.856 32.4673337,5.813 32.4673337,5.813 C32.4673337,5.813 31.9953337,-3.55271368e-15 37.8093337,-3.55271368e-15 C43.6233337,-3.55271368e-15 43.3733337,3.614 43.3733337,3.614 L42.1953337,4.832 L41.8943337,3.771 C41.8943337,3.771 40.4013337,6.363 42.0513337,6.756 C43.7003337,7.149 44.0153337,5.577 48.1003337,6.991 C49.4353337,7.541 50.7713337,8.17 53.8353337,7.463 C54.4633337,7.384 60.2773337,8.248 63.1843337,8.484 C66.0913337,8.72 68.5263337,6.52 69.9403337,10.449 C70.3333337,11.549 68.6053337,12.963 67.8193337,12.963 C67.0333337,12.963 64.3623337,11.077 63.1843337,11.077 C62.0063337,11.077 56.2713337,12.491 53.6783337,14.298 C53.1283337,14.142 46.8833337,13.944 46.5293337,14.298 C46.1753337,14.652 42.2873337,19.091 42.4443337,20.269 C43.0723337,21.37 44.7223337,24.119 45.9013337,24.433 C47.0803337,24.747 53.7573337,26.397 56.4283337,29.854 C56.1923337,30.954 55.5643337,35.588 56.4283337,38.966 C56.6633337,39.438 57.1353337,40.459 55.8783337,41.087 C54.6213337,41.716 52.5793337,42.58 52.7363337,42.973 C52.8933337,43.366 55.1713337,45.723 57.0573337,45.723 C58.9423337,45.723 59.2573337,46.273 59.2573337,46.587 C59.2573337,46.9 59.3363337,47.765 57.3713337,47.765 C55.4073337,47.765 52.5793337,46.823 52.0293337,46.823 C51.4793337,46.823 51.0083337,47.765 50.0653337,47.765 C49.1233337,47.765 47.9443337,47.137 47.9443337,46.037 C47.9443337,44.936 48.6513337,44.936 48.7303337,44.701 C48.8093337,44.466 49.1233337,43.365 49.1233337,43.13 C49.1233337,42.895 46.8453337,43.13 46.8453337,43.13 C46.8453337,43.13 48.4953337,33.467 48.4953337,33.152 C48.4953337,32.839 44.4883337,30.717 38.1253337,30.717 C31.7623337,30.717 25.7123337,33.623 24.7703337,35.037 C23.8283337,36.451 19.2713337,44.465 19.2713337,44.465 L17.3863337,43.364 C17.3863337,43.364 16.1293337,44.778 16.0503337,45.093 C15.9723337,45.407 16.2073337,45.879 16.6793337,46.507 C17.1503337,47.136 17.3073337,47.371 17.0723337,47.764 C16.8363337,48.158 14.7153337,48.707 14.1653337,48.628 C13.6153337,48.55 10.0803337,47.843 10.0013337,46.507 C9.92233365,45.172 13.3793337,42.815 13.3793337,42.815 L14.1653337,41.873 L11.8043337,39.673 Z" id="Path" fill="#000000" fill-rule="nonzero"></path>
                <path d="M72.8046875,45.1054688 C74.1757812,45.1054688 75.3691406,44.2675781 75.3691406,43.0361328 L75.3691406,42.0839844 L72.8554688,42.2490234 C71.6748047,42.3378906 71.0146484,42.8837891 71.0146484,43.6962891 C71.0146484,44.5722656 71.7382812,45.1054688 72.8046875,45.1054688 Z M71.2050781,48.203125 C68.640625,48.203125 66.5585938,46.5019531 66.5585938,44.0009766 C66.5585938,41.4111328 68.5517578,39.9638672 72.1318359,39.7480469 L75.3691406,39.5576172 L75.3691406,38.7705078 C75.3691406,37.6660156 74.5820312,37.0566406 73.4013672,37.0566406 C72.1826172,37.0566406 71.4082031,37.6914062 71.28125,38.5419922 L67.2314453,38.5419922 C67.3583984,35.7109375 69.7705078,33.8447266 73.6298828,33.8447266 C77.3242188,33.8447266 79.7744141,35.7363281 79.7744141,38.5166016 L79.7744141,48 L75.3945312,48 L75.3945312,46.0322266 L75.3056641,46.0322266 C74.5566406,47.4287109 72.8681641,48.203125 71.2050781,48.203125 Z M95.0341797,39.6337891 L90.8955078,39.6337891 C90.7431641,38.1992188 89.8798828,37.2724609 88.5722656,37.2724609 C86.9853516,37.2724609 86.0585938,38.6435547 86.0585938,41.0810547 C86.0585938,43.5439453 86.9853516,44.9150391 88.5722656,44.9150391 C89.8925781,44.9150391 90.7431641,44.0644531 90.9082031,42.6298828 L95.0341797,42.6298828 C94.9199219,46.1464844 92.4189453,48.3300781 88.5214844,48.3300781 C84.1923828,48.3300781 81.5009766,45.6132812 81.5009766,41.0810547 C81.5009766,36.5996094 84.1923828,33.8447266 88.4960938,33.8447266 C92.3935547,33.8447266 94.9199219,36.1679688 95.0341797,39.6337891 Z M97.8144531,31.0771484 L102.321289,31.0771484 L102.321289,34.1748047 L104.80957,34.1748047 L104.80957,37.4882812 L102.321289,37.4882812 L102.321289,43.2900391 C102.321289,44.2421875 102.829102,44.7246094 103.908203,44.7246094 C104.263672,44.7246094 104.530273,44.7119141 104.796875,44.6611328 L104.796875,47.8603516 C104.365234,47.9492188 103.705078,48.0253906 102.829102,48.0253906 C99.2363281,48.0253906 97.8144531,46.9208984 97.8144531,44.2041016 L97.8144531,37.4882812 L95.9355469,37.4882812 L95.9355469,34.1748047 L97.8144531,34.1748047 L97.8144531,31.0771484 Z M106.701172,48 L106.701172,34.1748047 L111.195312,34.1748047 L111.195312,48 L106.701172,48 Z M108.922852,32.6005859 C107.691406,32.6005859 106.713867,31.6103516 106.713867,30.4296875 C106.713867,29.2363281 107.691406,28.2460938 108.922852,28.2460938 C110.166992,28.2460938 111.144531,29.2363281 111.144531,30.4296875 C111.144531,31.6103516 110.166992,32.6005859 108.922852,32.6005859 Z M120.043945,48.3300781 C115.689453,48.3300781 112.972656,45.6894531 112.972656,41.0810547 C112.972656,36.5615234 115.75293,33.8447266 120.043945,33.8447266 C124.360352,33.8447266 127.115234,36.5488281 127.115234,41.0810547 C127.115234,45.7021484 124.398438,48.3300781 120.043945,48.3300781 Z M120.043945,45.0292969 C121.580078,45.0292969 122.557617,43.6201172 122.557617,41.09375 C122.557617,38.6054688 121.580078,37.1455078 120.043945,37.1455078 C118.520508,37.1455078 117.542969,38.6054688 117.542969,41.09375 C117.542969,43.6201172 118.495117,45.0292969 120.043945,45.0292969 Z M128.854492,48 L128.854492,34.1748047 L133.234375,34.1748047 L133.234375,36.7773438 L133.323242,36.7773438 C134.03418,34.9365234 135.481445,33.9082031 137.601562,33.9082031 C140.686523,33.9082031 142.400391,35.8378906 142.400391,39.1259766 L142.400391,48 L137.90625,48 L137.90625,40.0908203 C137.90625,38.5166016 137.157227,37.5771484 135.68457,37.5771484 C134.25,37.5771484 133.361328,38.65625 133.361328,40.1796875 L133.361328,48 L128.854492,48 Z M149.624023,48 L149.624023,29.6806641 L154.029297,29.6806641 L154.029297,36.7773438 L154.118164,36.7773438 C154.829102,34.9238281 156.339844,33.9082031 158.447266,33.9082031 C161.532227,33.9082031 163.246094,35.8632812 163.246094,39.1259766 L163.246094,48 L158.751953,48 L158.751953,40.1035156 C158.751953,38.5419922 157.977539,37.5771484 156.492188,37.5771484 C154.981445,37.5771484 154.130859,38.65625 154.130859,40.2050781 L154.130859,48 L149.624023,48 Z M171.891602,37.0439453 C170.507812,37.0439453 169.479492,38.0722656 169.365234,39.5068359 L174.392578,39.5068359 C174.316406,38.0341797 173.313477,37.0439453 171.891602,37.0439453 Z M174.494141,43.6328125 L178.556641,43.6328125 C178.125,46.4892578 175.585938,48.3300781 171.967773,48.3300781 C167.5625,48.3300781 164.93457,45.6259766 164.93457,41.1572266 C164.93457,36.6884766 167.587891,33.8447266 171.81543,33.8447266 C175.979492,33.8447266 178.632812,36.5742188 178.632812,40.8017578 L178.632812,42.0712891 L169.301758,42.0712891 L169.301758,42.3505859 C169.301758,44.0009766 170.40625,45.1435547 172.03125,45.1435547 C173.237305,45.1435547 174.176758,44.5722656 174.494141,43.6328125 Z M180.37207,48 L180.37207,34.1748047 L184.751953,34.1748047 L184.751953,36.7900391 L184.84082,36.7900391 C185.348633,34.9238281 186.46582,33.9716797 188.09082,33.9716797 C188.547852,33.9716797 188.928711,34.0351562 189.233398,34.1494141 L189.233398,37.9833984 C188.852539,37.8310547 188.332031,37.7294922 187.798828,37.7294922 C185.907227,37.7294922 184.878906,38.7958984 184.878906,40.7255859 L184.878906,48 L180.37207,48 Z M196.901367,48.3300781 C192.546875,48.3300781 189.830078,45.6894531 189.830078,41.0810547 C189.830078,36.5615234 192.610352,33.8447266 196.901367,33.8447266 C201.217773,33.8447266 203.972656,36.5488281 203.972656,41.0810547 C203.972656,45.7021484 201.255859,48.3300781 196.901367,48.3300781 Z M196.901367,45.0292969 C198.4375,45.0292969 199.415039,43.6201172 199.415039,41.09375 C199.415039,38.6054688 198.4375,37.1455078 196.901367,37.1455078 C195.37793,37.1455078 194.400391,38.6054688 194.400391,41.09375 C194.400391,43.6201172 195.352539,45.0292969 196.901367,45.0292969 Z M212.25,37.0439453 C210.866211,37.0439453 209.837891,38.0722656 209.723633,39.5068359 L214.750977,39.5068359 C214.674805,38.0341797 213.671875,37.0439453 212.25,37.0439453 Z M214.852539,43.6328125 L218.915039,43.6328125 C218.483398,46.4892578 215.944336,48.3300781 212.326172,48.3300781 C207.920898,48.3300781 205.292969,45.6259766 205.292969,41.1572266 C205.292969,36.6884766 207.946289,33.8447266 212.173828,33.8447266 C216.337891,33.8447266 218.991211,36.5742188 218.991211,40.8017578 L218.991211,42.0712891 L209.660156,42.0712891 L209.660156,42.3505859 C209.660156,44.0009766 210.764648,45.1435547 212.389648,45.1435547 C213.595703,45.1435547 214.535156,44.5722656 214.852539,43.6328125 Z M220.501953,38.3642578 C220.501953,35.5966797 222.863281,33.8447266 226.646484,33.8447266 C230.455078,33.8447266 232.740234,35.6982422 232.816406,38.5419922 L228.703125,38.5419922 C228.614258,37.5644531 227.890625,36.8789062 226.646484,36.8789062 C225.554688,36.8789062 224.818359,37.3613281 224.818359,38.1103516 C224.818359,38.7070312 225.224609,39.0878906 226.544922,39.3544922 L228.982422,39.8369141 C231.927734,40.4082031 233.197266,41.5507812 233.197266,43.6201172 C233.197266,46.4892578 230.607422,48.3300781 226.811523,48.3300781 C222.698242,48.3300781 220.413086,46.4765625 220.171875,43.6962891 L224.539062,43.6962891 C224.729492,44.7246094 225.503906,45.2958984 226.811523,45.2958984 C228.004883,45.2958984 228.741211,44.8388672 228.741211,44.1152344 C228.741211,43.4931641 228.296875,43.1630859 227.040039,42.9091797 L224.615234,42.4267578 C221.898438,41.8935547 220.501953,40.4716797 220.501953,38.3642578 Z" id="actionheroes" fill="#000000" fill-rule="nonzero"></path>
            </g>
        </g>
    </g>
</svg>