<?xml version="1.0" encoding="UTF-8"?>
<svg width="222px" height="56px" viewBox="0 0 222 56" version="1.1" xmlns="http://www.w3.org/2000/svg" xmlns:xlink="http://www.w3.org/1999/xlink">
    <!-- Generator: Sketch 56.3 (81716) - https://sketch.com -->
    <title>Artboard Copy</title>
    <desc>Created with Sketch.</desc>
    <g id="Artboard-Copy" stroke="none" stroke-width="1" fill="none" fill-rule="evenodd">
        <g id="Group-2-Copy-7">
            <rect id="Rectangle" fill="#FFD546" x="0" y="24" width="222" height="32"></rect>
            <path d="M11.8043337,39.673 C11.8043337,39.673 18.1683337,29.854 25.7093337,25.454 C25.7883337,24.982 25.8663337,24.353 26.4163337,24.275 C26.9663337,24.197 28.3803337,22.939 28.3803337,22.939 C28.3803337,22.939 21.3103337,19.876 22.0173337,18.697 C22.7243337,17.519 23.5103337,16.262 23.5103337,16.262 L26.2603337,16.89 C26.2603337,16.89 23.9043337,12.805 23.9043337,11.313 C23.9043337,9.82 25.2393337,7.542 27.2033337,7.542 C29.1673337,7.542 30.0313337,7.228 30.2673337,7.542 C30.5023337,7.856 32.4673337,5.813 32.4673337,5.813 C32.4673337,5.813 31.9953337,-3.55271368e-15 37.8093337,-3.55271368e-15 C43.6233337,-3.55271368e-15 43.3733337,3.614 43.3733337,3.614 L42.1953337,4.832 L41.8943337,3.771 C41.8943337,3.771 40.4013337,6.363 42.0513337,6.756 C43.7003337,7.149 44.0153337,5.577 48.1003337,6.991 C49.4353337,7.541 50.7713337,8.17 53.8353337,7.463 C54.4633337,7.384 60.2773337,8.248 63.1843337,8.484 C66.0913337,8.72 68.5263337,6.52 69.9403337,10.449 C70.3333337,11.549 68.6053337,12.963 67.8193337,12.963 C67.0333337,12.963 64.3623337,11.077 63.1843337,11.077 C62.0063337,11.077 56.2713337,12.491 53.6783337,14.298 C53.1283337,14.142 46.8833337,13.944 46.5293337,14.298 C46.1753337,14.652 42.2873337,19.091 42.4443337,20.269 C43.0723337,21.37 44.7223337,24.119 45.9013337,24.433 C47.0803337,24.747 53.7573337,26.397 56.4283337,29.854 C56.1923337,30.954 55.5643337,35.588 56.4283337,38.966 C56.6633337,39.438 57.1353337,40.459 55.8783337,41.087 C54.6213337,41.716 52.5793337,42.58 52.7363337,42.973 C52.8933337,43.366 55.1713337,45.723 57.0573337,45.723 C58.9423337,45.723 59.2573337,46.273 59.2573337,46.587 C59.2573337,46.9 59.3363337,47.765 57.3713337,47.765 C55.4073337,47.765 52.5793337,46.823 52.0293337,46.823 C51.4793337,46.823 51.0083337,47.765 50.0653337,47.765 C49.1233337,47.765 47.9443337,47.137 47.9443337,46.037 C47.9443337,44.936 48.6513337,44.936 48.7303337,44.701 C48.8093337,44.466 49.1233337,43.365 49.1233337,43.13 C49.1233337,42.895 46.8453337,43.13 46.8453337,43.13 C46.8453337,43.13 48.4953337,33.467 48.4953337,33.152 C48.4953337,32.839 44.4883337,30.717 38.1253337,30.717 C31.7623337,30.717 25.7123337,33.623 24.7703337,35.037 C23.8283337,36.451 19.2713337,44.465 19.2713337,44.465 L17.3863337,43.364 C17.3863337,43.364 16.1293337,44.778 16.0503337,45.093 C15.9723337,45.407 16.2073337,45.879 16.6793337,46.507 C17.1503337,47.136 17.3073337,47.371 17.0723337,47.764 C16.8363337,48.158 14.7153337,48.707 14.1653337,48.628 C13.6153337,48.55 10.0803337,47.843 10.0013337,46.507 C9.92233365,45.172 13.3793337,42.815 13.3793337,42.815 L14.1653337,41.873 L11.8043337,39.673 Z" id="Path" fill="#000000" fill-rule="nonzero"></path>
            <path d="M74.8046875,45.1054688 C76.1757812,45.1054688 77.3691406,44.2675781 77.3691406,43.0361328 L77.3691406,42.0839844 L74.8554688,42.2490234 C73.6748047,42.3378906 73.0146484,42.8837891 73.0146484,43.6962891 C73.0146484,44.5722656 73.7382812,45.1054688 74.8046875,45.1054688 Z M73.2050781,48.203125 C70.640625,48.203125 68.5585938,46.5019531 68.5585938,44.0009766 C68.5585938,41.4111328 70.5517578,39.9638672 74.1318359,39.7480469 L77.3691406,39.5576172 L77.3691406,38.7705078 C77.3691406,37.6660156 76.5820312,37.0566406 75.4013672,37.0566406 C74.1826172,37.0566406 73.4082031,37.6914062 73.28125,38.5419922 L69.2314453,38.5419922 C69.3583984,35.7109375 71.7705078,33.8447266 75.6298828,33.8447266 C79.3242188,33.8447266 81.7744141,35.7363281 81.7744141,38.5166016 L81.7744141,48 L77.3945312,48 L77.3945312,46.0322266 L77.3056641,46.0322266 C76.5566406,47.4287109 74.8681641,48.203125 73.2050781,48.203125 Z M97.0341797,39.6337891 L92.8955078,39.6337891 C92.7431641,38.1992188 91.8798828,37.2724609 90.5722656,37.2724609 C88.9853516,37.2724609 88.0585938,38.6435547 88.0585938,41.0810547 C88.0585938,43.5439453 88.9853516,44.9150391 90.5722656,44.9150391 C91.8925781,44.9150391 92.7431641,44.0644531 92.9082031,42.6298828 L97.0341797,42.6298828 C96.9199219,46.1464844 94.4189453,48.3300781 90.5214844,48.3300781 C86.1923828,48.3300781 83.5009766,45.6132812 83.5009766,41.0810547 C83.5009766,36.5996094 86.1923828,33.8447266 90.4960938,33.8447266 C94.3935547,33.8447266 96.9199219,36.1679688 97.0341797,39.6337891 Z M99.8144531,31.0771484 L104.321289,31.0771484 L104.321289,34.1748047 L106.80957,34.1748047 L106.80957,37.4882812 L104.321289,37.4882812 L104.321289,43.2900391 C104.321289,44.2421875 104.829102,44.7246094 105.908203,44.7246094 C106.263672,44.7246094 106.530273,44.7119141 106.796875,44.6611328 L106.796875,47.8603516 C106.365234,47.9492188 105.705078,48.0253906 104.829102,48.0253906 C101.236328,48.0253906 99.8144531,46.9208984 99.8144531,44.2041016 L99.8144531,37.4882812 L97.9355469,37.4882812 L97.9355469,34.1748047 L99.8144531,34.1748047 L99.8144531,31.0771484 Z M108.701172,48 L108.701172,34.1748047 L113.195312,34.1748047 L113.195312,48 L108.701172,48 Z M110.922852,32.6005859 C109.691406,32.6005859 108.713867,31.6103516 108.713867,30.4296875 C108.713867,29.2363281 109.691406,28.2460938 110.922852,28.2460938 C112.166992,28.2460938 113.144531,29.2363281 113.144531,30.4296875 C113.144531,31.6103516 112.166992,32.6005859 110.922852,32.6005859 Z M122.043945,48.3300781 C117.689453,48.3300781 114.972656,45.6894531 114.972656,41.0810547 C114.972656,36.5615234 117.75293,33.8447266 122.043945,33.8447266 C126.360352,33.8447266 129.115234,36.5488281 129.115234,41.0810547 C129.115234,45.7021484 126.398438,48.3300781 122.043945,48.3300781 Z M122.043945,45.0292969 C123.580078,45.0292969 124.557617,43.6201172 124.557617,41.09375 C124.557617,38.6054688 123.580078,37.1455078 122.043945,37.1455078 C120.520508,37.1455078 119.542969,38.6054688 119.542969,41.09375 C119.542969,43.6201172 120.495117,45.0292969 122.043945,45.0292969 Z M130.854492,48 L130.854492,34.1748047 L135.234375,34.1748047 L135.234375,36.7773438 L135.323242,36.7773438 C136.03418,34.9365234 137.481445,33.9082031 139.601562,33.9082031 C142.686523,33.9082031 144.400391,35.8378906 144.400391,39.1259766 L144.400391,48 L139.90625,48 L139.90625,40.0908203 C139.90625,38.5166016 139.157227,37.5771484 137.68457,37.5771484 C136.25,37.5771484 135.361328,38.65625 135.361328,40.1796875 L135.361328,48 L130.854492,48 Z M151.624023,48 L151.624023,29.6806641 L156.029297,29.6806641 L156.029297,36.7773438 L156.118164,36.7773438 C156.829102,34.9238281 158.339844,33.9082031 160.447266,33.9082031 C163.532227,33.9082031 165.246094,35.8632812 165.246094,39.1259766 L165.246094,48 L160.751953,48 L160.751953,40.1035156 C160.751953,38.5419922 159.977539,37.5771484 158.492188,37.5771484 C156.981445,37.5771484 156.130859,38.65625 156.130859,40.2050781 L156.130859,48 L151.624023,48 Z M173.891602,37.0439453 C172.507812,37.0439453 171.479492,38.0722656 171.365234,39.5068359 L176.392578,39.5068359 C176.316406,38.0341797 175.313477,37.0439453 173.891602,37.0439453 Z M176.494141,43.6328125 L180.556641,43.6328125 C180.125,46.4892578 177.585938,48.3300781 173.967773,48.3300781 C169.5625,48.3300781 166.93457,45.6259766 166.93457,41.1572266 C166.93457,36.6884766 169.587891,33.8447266 173.81543,33.8447266 C177.979492,33.8447266 180.632812,36.5742188 180.632812,40.8017578 L180.632812,42.0712891 L171.301758,42.0712891 L171.301758,42.3505859 C171.301758,44.0009766 172.40625,45.1435547 174.03125,45.1435547 C175.237305,45.1435547 176.176758,44.5722656 176.494141,43.6328125 Z M182.37207,48 L182.37207,34.1748047 L186.751953,34.1748047 L186.751953,36.7900391 L186.84082,36.7900391 C187.348633,34.9238281 188.46582,33.9716797 190.09082,33.9716797 C190.547852,33.9716797 190.928711,34.0351562 191.233398,34.1494141 L191.233398,37.9833984 C190.852539,37.8310547 190.332031,37.7294922 189.798828,37.7294922 C187.907227,37.7294922 186.878906,38.7958984 186.878906,40.7255859 L186.878906,48 L182.37207,48 Z M198.901367,48.3300781 C194.546875,48.3300781 191.830078,45.6894531 191.830078,41.0810547 C191.830078,36.5615234 194.610352,33.8447266 198.901367,33.8447266 C203.217773,33.8447266 205.972656,36.5488281 205.972656,41.0810547 C205.972656,45.7021484 203.255859,48.3300781 198.901367,48.3300781 Z M198.901367,45.0292969 C200.4375,45.0292969 201.415039,43.6201172 201.415039,41.09375 C201.415039,38.6054688 200.4375,37.1455078 198.901367,37.1455078 C197.37793,37.1455078 196.400391,38.6054688 196.400391,41.09375 C196.400391,43.6201172 197.352539,45.0292969 198.901367,45.0292969 Z" id="actionhero" fill="#000000" fill-rule="nonzero"></path>
        </g>
    </g>
</svg>